<svg width="220" height="185" viewBox="0 0 220 185" fill="none" xmlns="http://www.w3.org/2000/svg">
<path d="M218.42 112.921C217.491 112.357 216.354 112.305 215.4 112.767C212.792 114 207.087 116.031 205.331 115.619C167.07 91.9531 142.157 86.8123 123.052 86.0685C124.705 85.4268 126.022 85.0665 126.821 85.2206C127.209 85.2977 127.596 85.2206 127.88 84.9643C128.19 84.7331 128.345 84.3728 128.345 83.9874C128.345 83.7562 128.5 63.5338 129.172 54.7955C131.624 54.6933 134.335 54.1789 137.175 53.306H137.227C137.459 53.306 137.691 53.2289 137.898 53.0747C155.428 47.5504 178.043 30.1528 181.478 20.1058C182.614 20.7225 184.24 21.391 186.021 21.391C186.743 21.391 187.493 21.2889 188.242 21.0307C190.385 20.2851 191.986 18.9999 192.683 17.5354C193.122 16.5854 193.172 15.6085 192.838 14.7087C192.115 12.7549 189.843 13.3984 188.319 13.8089C187.725 13.9631 186.77 14.2463 186.356 14.1172C184.188 13.2443 181.011 12.1383 178.353 12.7048H178.328H178.276C178.198 12.7048 178.146 12.7567 178.069 12.7818C177.991 12.8069 177.914 12.8338 177.836 12.8589C171.253 17.0479 151.554 23.4721 135.239 26.58C135.059 26.58 134.852 26.6051 134.697 26.6822C130.695 27.4279 126.926 27.9674 123.596 28.2237H123.519H123.494C121.763 28.3528 120.164 28.403 118.718 28.3779C118.331 26.9135 117.736 25.0368 117.117 23.3161C119.777 21.5685 121.118 19.3852 121.453 18.3562C122.357 15.6585 119.543 11.5984 116.058 8.61757C119.13 7.23022 120.137 6.27839 120.007 5.04518C119.852 3.47855 118.019 3.14339 115.696 2.706C114.457 2.47477 112.933 2.19156 112.339 1.8062C109.834 0.110534 107.615 -0.403906 105.782 0.316658C104.156 0.933288 103.304 2.32064 102.89 3.27242C101.444 3.29752 99.4826 3.42658 98.321 4.73686C96.6948 6.53651 96.1257 8.46339 96.7722 10.2112C96.1005 10.9819 95.5332 12.061 95.4557 12.9859C95.3531 14.4253 95.8177 15.7607 96.9793 17.3022C97.2368 17.6355 97.4961 18.1751 97.7789 18.7415C98.7333 20.5913 100.025 23.1348 102.555 23.7014C102.762 23.7534 103.199 23.8036 103.768 23.8036C104.465 23.8036 105.342 23.7265 106.119 23.5204C106.454 24.1621 106.918 24.8056 107.383 25.4742C90.6025 25.1408 84.2256 27.5552 77.5117 30.0734C75.6532 30.7671 73.7425 31.4859 71.5742 32.1545C57.4014 36.4976 34.1123 34.0814 23.6554 30.4319C23.578 30.4068 23.5005 30.4319 23.4231 30.4068C23.3456 30.4068 23.2934 30.3548 23.216 30.3548H23.1638C20.4534 30.4319 17.6135 32.2315 15.6002 33.644C15.3157 33.7731 14.309 33.7462 13.7147 33.7211C12.1407 33.6691 9.7654 33.567 9.53309 35.6229C9.43044 36.5998 9.68796 37.5247 10.3597 38.3474C11.3916 39.6326 13.2519 40.5055 15.4978 40.7368C15.7301 40.7368 15.9624 40.7619 16.1947 40.7619C18.725 40.7619 20.8409 39.2723 22.0548 38.1413C26.9352 45.207 36.3571 51.3499 47.7947 54.7162C54.1195 56.566 60.678 57.4909 67.2605 57.4909C70.2805 57.4909 73.3275 57.2346 76.3223 56.8492C75.6254 58.751 74.9537 60.6008 74.309 62.4006C71.134 71.3683 68.3714 79.1026 63.0535 83.4981C62.769 83.7293 62.5889 84.0896 62.5889 84.475C62.5889 84.8604 62.7438 85.2207 63.0535 85.4519C63.5704 85.8892 64.0602 86.2226 64.5771 86.6331C60.2406 89.4078 57.0638 95.6779 55.9546 99.4815C53.6044 107.628 37.2112 131.192 9.84299 165.83C9.32613 165.932 8.8363 166.24 8.42391 166.677C7.7522 167.423 6.64284 167.654 4.78436 167.423C4.00998 167.321 3.26082 167.525 2.64134 168.015C2.02182 168.502 1.60943 169.223 1.53202 169.993L0.00848218 182.559C-0.0167303 182.815 0.00848102 183.098 0.163357 183.329C0.680211 184.279 1.60945 184.896 2.69359 185H2.97813C3.95961 185 4.86363 184.563 5.48315 183.792C7.29124 181.53 11.5502 177.136 13.2791 176.776C13.4339 176.751 13.6915 176.647 13.9238 176.493C14.0012 176.493 14.1038 176.493 14.1813 176.441C53.6818 158.633 70.5414 143.266 81.7212 133.09C88.46 126.949 93.3137 122.529 99.8703 120.55C108.236 118.392 117.038 118.7 127.521 121.527C159.483 130.109 200.04 127.156 203.502 126.897C204.019 127.026 204.612 126.999 205.206 126.768C206.135 126.383 207.246 126.691 208.795 127.693C209.26 128.001 209.827 128.156 210.369 128.156C210.576 128.156 210.782 128.156 210.963 128.104C211.738 127.949 212.41 127.487 212.849 126.818L219.793 116.205C219.948 115.974 220 115.718 220 115.459C219.975 114.38 219.38 113.403 218.476 112.864L218.42 112.921ZM178.972 15.1727C181.167 14.7873 184.342 16.0456 185.529 16.535C186.536 16.9454 187.75 16.612 189.014 16.2517C189.426 16.1496 190.073 15.9685 190.46 15.9184C190.46 16.0725 190.408 16.2517 190.33 16.4328C189.943 17.2806 188.781 18.1034 187.361 18.6178C184.598 19.5947 181.473 17.1014 181.448 17.0763C181.423 17.0512 181.371 17.0512 181.346 17.0243C181.268 16.9723 181.191 16.9472 181.113 16.8952C181.036 16.8701 180.959 16.8432 180.856 16.8181C180.804 16.8181 180.778 16.7931 180.726 16.7931H180.624C180.546 16.7931 180.469 16.7931 180.366 16.8181C180.263 16.8181 180.186 16.8701 180.109 16.8952C180.056 16.8952 180.006 16.9472 179.954 16.9723C179.851 17.0243 179.774 17.1014 179.696 17.1784C179.696 17.1784 179.644 17.2035 179.644 17.2304C179.644 17.2304 179.644 17.2824 179.592 17.3075C179.539 17.3846 179.489 17.4867 179.437 17.5907C179.412 17.6678 179.385 17.7449 179.385 17.8219C179.385 17.8739 179.359 17.899 179.359 17.951C179.024 22.4985 171.072 31.0559 160.022 38.7649C153.051 43.6477 146.004 47.3742 139.782 49.6865C140.943 45.8577 141.383 39.8708 140.582 35.1155C140.117 32.3139 139.265 30.1308 138.051 28.6142C154.058 25.325 172.336 19.2863 178.998 15.1744L178.972 15.1727ZM134.901 29.2292C136.347 30.1021 137.456 32.2872 137.998 35.5245C139.005 41.4861 137.869 48.7064 136.579 50.7369C133.946 51.5328 131.544 51.9952 129.428 52.1494C130.202 45.5458 130.874 34.8036 127.775 30.3333C130.047 30.0501 132.421 29.6647 134.901 29.2023L134.901 29.2292ZM103.378 14.7101C103.508 14.8392 103.895 15.3268 103.636 15.6601C102.862 16.637 102.784 18.9493 104.772 21.2115C104.153 21.2886 103.431 21.3137 103.146 21.2635C101.804 20.9552 100.848 19.1054 100.099 17.641C99.737 16.9222 99.4273 16.3056 99.0671 15.8162C98.1126 14.5579 98.0082 13.8373 98.0604 13.2458C98.1126 12.7063 98.7825 11.8585 99.0419 11.6523C99.2742 11.4981 99.4291 11.2418 99.5587 10.9837C99.7136 10.5983 99.6362 10.1108 99.4038 9.75051C98.6547 8.59438 99.6362 7.23209 100.281 6.48642C100.798 5.89489 102.372 5.8698 103.328 5.8698H103.922C104.49 5.8447 104.981 5.43243 105.136 4.86781C105.136 4.86781 105.548 3.22234 106.789 2.73479C107.796 2.34942 109.242 2.75989 110.971 3.94291C112.003 4.63658 113.681 4.9449 115.307 5.25321C115.695 5.33029 116.184 5.40736 116.649 5.50953C116.029 5.84293 115.048 6.33229 113.499 6.97397C108.387 9.08193 106.373 8.41331 106.373 8.41331C106.038 8.25916 105.624 8.23407 105.289 8.41331C104.927 8.56746 104.67 8.87576 104.567 9.23606C104.257 10.3671 103.793 10.8546 103.431 11.2669C102.631 12.1148 102.089 13.1436 103.483 14.7102L103.378 14.7101ZM107.277 20.0803C105.624 18.6158 105.651 17.3826 105.651 17.2535C106.606 16.0203 106.478 14.3498 105.289 13.0144C105.289 13.0144 105.264 12.9893 105.237 12.9624C105.599 12.577 106.089 12.0124 106.528 11.0606C107.792 11.1628 110.013 10.9584 113.344 9.7252C113.37 9.7252 113.397 9.77718 113.422 9.80227C117.139 12.6541 119.437 16.2517 118.972 17.5618C118.765 18.1533 117.603 20.1823 114.893 21.6468C114.841 21.6719 114.816 21.7238 114.763 21.7489C114.686 21.8009 114.634 21.8511 114.556 21.9031C114.504 21.9551 114.454 22.0321 114.427 22.1092C114.374 22.1863 114.349 22.2383 114.324 22.3154C114.299 22.3924 114.272 22.4695 114.272 22.5466C114.272 22.6237 114.247 22.7007 114.272 22.7778C114.272 22.8549 114.272 22.9571 114.324 23.0341C114.324 23.0861 114.324 23.1632 114.349 23.2134C115.124 25.1672 115.873 27.6067 116.312 29.304C116.312 29.381 116.26 29.433 116.26 29.5101C116.26 29.6392 116.26 29.7664 116.312 29.8955C115.848 30.0496 114.918 30.1787 113.782 30.0496C112.646 29.8955 112.051 29.5352 111.974 29.5101C112.361 27.8915 111.097 26.169 109.806 24.3712C109.134 23.4463 108.412 22.4694 108.179 21.7757C108.154 21.6987 108.102 21.6467 108.05 21.5696C108.05 21.1323 107.947 20.5927 107.301 20.0281L107.277 20.0803ZM23.2696 35.4992C23.2696 35.4992 23.1147 35.32 23.0373 35.2429C23.0121 35.2178 22.985 35.1658 22.9346 35.1407C22.5997 34.8844 22.135 34.8324 21.7208 34.9866C21.6434 34.9866 21.5912 35.0117 21.5137 35.0637C21.4363 35.1156 21.3841 35.1927 21.3066 35.2429C21.2544 35.2949 21.204 35.32 21.1518 35.372C21.1518 35.3971 18.6467 38.559 15.7564 38.2238C14.2329 38.0696 12.9416 37.505 12.3492 36.7844C12.2195 36.6303 12.1421 36.4761 12.0916 36.322C12.504 36.27 13.1506 36.322 13.5882 36.322C14.9046 36.3739 16.1436 36.4241 17.1773 35.7053C18.1066 35.0636 20.8691 33.1099 23.0895 32.9808C29.8015 35.268 41.3935 37.0407 52.701 37.0407C59.775 37.0407 66.7189 36.3471 72.3217 34.6245C72.5288 34.5725 72.6837 34.4955 72.889 34.4453C71.4429 39.0197 72.527 44.8272 74.2055 48.9121C74.7223 50.1704 75.8065 52.5095 77.3552 54.2051C52.6743 58.0589 30.1602 47.1395 23.2679 35.497L23.2696 35.4992ZM76.6838 63.3288C77.4581 61.1438 78.2848 58.8584 79.1618 56.5192C82.8013 55.8775 86.4155 54.9525 89.9022 53.7444C90.5739 53.5132 90.9341 52.7675 90.6766 52.099C90.4443 51.4304 89.6951 51.0719 89.0234 51.3282C86.2357 52.3051 83.446 53.0239 80.6835 53.5903C79.6516 53.2049 77.9732 51.3551 76.6045 47.9618C74.719 43.3373 73.8672 37.0402 76.1921 33.3408C76.9413 33.0576 77.7157 32.7762 78.4378 32.518C85.1245 29.9996 91.476 27.6104 109.136 28.1247C109.343 28.485 109.47 28.8184 109.445 28.9976C109.213 30.0516 109.625 31.0285 110.607 31.6953C111.614 32.389 113.214 32.7224 114.738 32.7224C116.002 32.7224 117.243 32.4661 118.017 31.9516C118.43 31.6953 118.714 31.335 118.894 30.9496H119.617C120.856 30.9496 122.249 30.8726 123.696 30.7704H123.773C124.418 30.7184 124.909 30.8994 125.374 31.387C128.034 34.1367 127.879 44.0293 126.845 52.3822C126.071 58.6269 125.864 77.4622 125.813 82.6263C123.568 82.8575 120.623 84.2198 116.804 85.9674C105.159 91.3376 85.7961 100.28 65.8144 84.4779C70.9272 79.5703 73.6103 71.9631 76.7098 63.2785L76.6838 63.3288ZM12.4263 174.417C8.99205 175.419 3.46678 182.203 3.41653 182.28C3.23644 182.512 3.02934 182.537 2.87446 182.512C2.79702 182.512 2.69436 182.486 2.58991 182.435L4.03601 170.382C4.03601 170.253 4.13866 170.176 4.39798 170.074C6.12862 170.28 8.60662 170.357 10.2078 168.428C10.4149 168.505 11.0596 169.122 11.6791 170.613C12.4013 172.361 12.5309 173.902 12.4283 174.442L12.4263 174.417ZM201.51 124.515C192.783 125.079 156.897 126.827 128.162 119.093C117.216 116.164 107.999 115.828 99.1425 118.116C91.9911 120.274 86.9309 124.873 79.9344 131.247C69.0663 141.14 52.6981 156.019 15.0039 173.261C14.8238 171.128 13.7901 168.301 12.3188 166.811C28.5067 146.305 55.0985 111.513 58.3511 100.257C59.4604 96.4031 62.8695 90.2352 66.7684 88.4107C74.8488 94.0392 82.7493 96.0431 90.0805 96.0431C100.898 96.0431 110.45 91.7268 117.446 88.4878C136.68 88.5129 161.878 92.0333 202.593 116.959C201.561 118.63 200.914 122.098 201.484 124.488L201.51 124.515ZM210.625 125.491C210.625 125.491 210.445 125.646 210.16 125.62C209.101 124.927 207.682 124.131 206.107 124.131C205.487 124.131 204.867 124.26 204.221 124.541C204.066 124.387 203.782 123.539 203.886 121.946C204.016 120.069 204.583 118.632 204.918 118.194C208.455 118.811 216.433 115.161 216.51 115.111C216.768 114.982 216.975 115.086 217.105 115.136C217.157 115.161 217.26 115.239 217.312 115.343L210.65 125.493L210.625 125.491Z" fill="#98A7CC"/>
</svg>
