<svg width="193" height="239" viewBox="0 0 193 239" fill="none" xmlns="http://www.w3.org/2000/svg">
<path d="M189.739 29.507C187.971 29.3953 186.062 30.7141 184.348 31.8389C183.815 32.2034 183.226 32.5973 182.86 32.7659C182.719 32.7385 182.466 32.6542 182.298 32.5974C181.287 32.2877 179.771 31.839 178.593 32.8227C177.441 33.777 177.414 35.4643 177.555 36.7283C177.245 38.2725 176.965 40.1283 176.656 42.1509C175.224 51.2808 173.062 65.0477 167.448 66.6485C165.96 67.0698 164.191 67.013 162.366 66.5917C162.141 66.4506 161.888 66.3957 161.636 66.4232C157.874 65.4394 153.775 63.1643 150.687 60.832C155.543 58.8939 159.053 55.8878 161.074 51.8411C165.313 43.3282 161.636 33.524 161.215 32.4289C157.48 22.9894 144.874 19.2249 139.176 19.8715C129.406 20.967 125.812 20.3203 119.972 17.7924C116.295 16.2188 112.308 13.438 108.125 10.5161C96.782 2.59323 82.6331 -7.29522 70.8699 8.07243C69.8595 9.39323 68.988 11.0217 68.2027 12.8481C67.5858 12.3699 67.0512 11.9486 66.6596 11.5841C64.5818 9.61663 61.8304 9.27955 60.3419 9.11104C60.0893 9.08361 59.8641 9.05421 59.725 9.02678C59.4156 8.91508 58.7145 8.12728 58.2935 7.67853C57.1713 6.44201 55.4852 4.56075 53.6895 5.93638C52.8748 6.58309 52.3422 7.50997 52.2011 8.60542C51.9759 10.3476 52.7064 12.3974 54.1947 14.2803C56.2999 16.9494 59.8091 17.3139 61.662 17.3139H61.8304C62.3082 20.0398 63.5713 22.9617 65.3671 25.9381C65.3671 25.995 65.3397 26.0498 65.3103 26.1067C64.5525 37.906 68.1733 48.9463 75.0235 55.774C74.154 62.6013 75.1645 67.769 78.1685 71.4788C81.2294 75.2708 86.1702 77.5185 93.9172 78.5865C89.7617 80.9185 85.524 82.4627 82.2944 83.2505C82.267 83.2505 82.2377 83.278 82.1828 83.3073C65.1417 64.8493 32.5475 41.4765 16.0378 29.7037C15.701 29.1982 15.2799 28.9454 15.0273 28.8336C13.0611 28.0184 9.04647 21.8669 7.44674 18.8042C6.8847 17.7088 5.79001 16.9778 4.58372 16.8367C3.34805 16.6956 2.16913 17.2012 1.38385 18.1575C1.18802 18.3829 1.10381 18.6631 1.07443 18.9433L0.00715831 34.0286C-0.049632 34.9281 0.232364 35.8275 0.821814 36.5017C1.41126 37.1758 2.22593 37.5697 3.09543 37.6246C5.34163 37.7657 6.63214 38.3261 7.25098 39.3667C7.4468 39.7038 7.69943 39.9566 7.95203 40.1819C14.1013 55.2672 40.068 82.5476 57.3071 100.638C64.9719 108.673 71.035 115.022 72.9716 117.776C76.9293 123.845 78.8682 142.161 80.5797 158.342L81.226 164.411C82.7417 178.29 86.7561 213.8 87.1226 217.087C87.0384 217.451 86.9816 217.818 87.011 218.21C87.1226 219.446 86.3941 220.626 84.6532 222.059C83.9795 222.621 83.5585 223.407 83.4743 224.306C83.3901 225.206 83.6701 226.105 84.2321 226.779L93.8907 238.41C94.0865 238.636 94.3117 238.804 94.5917 238.859C94.9012 238.943 95.238 239 95.5454 239C96.4149 239 97.2864 238.69 97.96 238.073C98.8863 237.258 99.3347 236.021 99.1663 234.814C98.6611 231.387 98.3516 224.054 99.4757 222.227C99.6441 221.947 99.8968 221.385 99.7851 220.626C111.043 175.254 112.953 146.349 106.157 124.546C108.208 121.062 116.995 106.931 129.487 97.0148C132.322 94.7671 135.215 93.3072 138.021 91.9023C142.345 89.7114 146.471 87.6322 149.728 82.9956C152.873 84.3164 155.651 85.2159 158.121 85.7489C160.451 86.2545 162.529 86.4799 164.409 86.4799C167.693 86.4799 170.36 85.8625 172.691 85.0748C176.396 83.8677 179.99 79.5679 182.77 72.9955C186.701 63.7517 188.835 50.0145 185.69 41.3335C187.543 40.8279 190.462 39.6482 191.782 37.0635C193.102 34.5355 193.355 32.5131 192.513 31.1081C191.951 30.1538 190.94 29.5914 189.704 29.5345L189.739 29.507ZM64.4176 15.7697C64.3609 15.0682 63.7714 14.5626 63.0977 14.5057C62.9019 14.4489 62.7041 14.4215 62.5083 14.4489C62.4809 14.4489 58.2979 14.9271 56.3886 12.5108C55.4055 11.2468 54.8455 9.8692 54.9845 8.91482C54.9845 8.71886 55.0413 8.57776 55.1255 8.43667C55.4623 8.7169 55.8833 9.19504 56.1927 9.53212C57.0916 10.5158 58.0179 11.5545 59.1694 11.7524C59.3946 11.7799 59.6746 11.8367 60.0114 11.8641C61.3588 12.0326 63.3798 12.258 64.7564 13.6337H64.7838V13.6611C70.0909 18.2683 92.073 32.7638 107.176 40.7163C104.733 42.1213 102.713 44.7904 101.505 48.3296C100.831 50.2971 100.437 52.5997 100.551 54.6221C97.3784 52.7114 93.7849 50.3246 89.9387 47.3458C78.6805 38.7216 65.2619 25.2372 64.4202 15.7129L64.4176 15.7697ZM80.3643 69.6793C77.7814 66.4773 76.996 61.8131 77.9223 55.4073C77.9791 54.9585 77.8381 54.5078 77.5013 54.1708C71.6343 48.6368 68.2368 39.7025 68.0683 29.8417C73.3187 36.8927 80.9835 44.0004 88.2548 49.591C94.6838 54.5352 102.993 59.9009 108.889 61.8388C107.037 67.908 102.74 72.6268 97.7995 76.1109C88.7601 75.3525 83.3688 73.385 80.3939 69.6498L80.3643 69.6793ZM9.67226 37.9055C8.18392 35.3775 5.32089 34.9268 3.27031 34.7877C3.1019 34.7877 2.99028 34.676 2.93348 34.6191C2.82186 34.5074 2.79248 34.3389 2.79248 34.1978L3.83038 19.6729C4.02621 19.5612 4.224 19.5612 4.30821 19.5887C4.4492 19.5887 4.78603 19.6729 4.98189 20.0374C5.03868 20.1217 9.58587 28.6346 13.2638 30.9663C13.348 31.078 13.4322 31.1917 13.5438 31.276L13.7397 31.4171C13.7397 32.148 13.207 33.9744 11.8871 35.9125C10.7082 37.6252 9.86617 38.0191 9.69772 37.9074L9.67226 37.9055ZM96.8129 221.186V221.466C95.1855 225.511 96.4486 235.092 96.4486 235.204C96.5054 235.625 96.2802 235.878 96.1686 235.962C96.1118 236.019 95.9434 236.131 95.7201 236.158L86.4281 224.949C86.4281 224.949 86.2871 224.668 86.2871 224.527C86.2871 224.443 86.3438 224.302 86.4555 224.19C88.028 222.899 90.0764 220.847 89.7689 217.814C89.8257 217.786 89.9941 217.729 90.331 217.729C90.8088 217.729 91.5941 217.841 92.773 218.262C94.935 219.048 96.4233 220.2 96.8717 220.82C96.8443 220.931 96.8149 221.045 96.7875 221.184L96.8129 221.186ZM97.655 217.731C95.5204 216.13 92.1248 214.698 89.7671 214.978C88.8682 206.916 85.4431 176.602 84.0685 164.043L83.4222 157.974C81.5697 140.668 79.6878 122.773 75.3363 116.143C73.286 113.221 67.1662 106.788 59.3896 98.6689C42.7697 81.2514 18.0362 55.2643 11.1861 40.4299C13.4048 39.307 15.51 35.8796 16.268 33.2103C33.8987 45.8248 66.6313 69.5073 82.2125 87.4009C83.3915 90.94 84.2335 94.8733 85.0208 98.7216C87.4922 110.773 90.0731 123.192 103.719 125.916C110.064 146.79 108.239 174.547 97.6833 217.752L97.655 217.731ZM148.555 79.5659C145.551 84.9042 141.479 86.954 136.763 89.3425C133.844 90.8025 130.812 92.3486 127.751 94.7651C115.062 104.879 106.331 118.7 103.944 122.774C103.832 122.831 103.691 122.915 103.607 123C92.3214 120.388 90.0755 109.57 87.7177 98.1083C86.9031 94.1479 86.0336 90.0735 84.7979 86.3662C84.7979 86.2819 84.7705 86.2251 84.7411 86.1702C84.6569 85.9449 84.6001 85.6921 84.5159 85.4687C90.0756 83.8402 107.144 77.6025 111.58 62.4876C111.973 62.5444 112.337 62.5719 112.674 62.5719C113.011 62.5719 113.32 62.5719 113.628 62.4876C114.386 62.3465 114.891 61.6175 114.75 60.8591C114.609 60.1008 113.881 59.5677 113.123 59.7363C111.634 59.9891 108.323 58.8936 103.858 56.5342C103.157 55.5505 103.043 52.4895 104.138 49.2579C104.7 47.6001 106.384 43.6101 109.782 42.6283C109.978 42.5715 110.146 42.4598 110.315 42.3481C111.298 42.8263 112.252 43.2751 113.123 43.6964C117.39 45.6345 120.704 46.5339 123.623 47.3491C127.749 48.472 131.316 49.4557 136.454 53.0812C136.511 53.1655 136.538 53.2223 136.623 53.3066C137.492 54.2335 139.121 54.7117 140.526 54.7117C140.694 54.7117 140.862 54.7117 141.058 54.6842C141.142 54.8802 141.227 55.0781 141.395 55.2467C149.144 62.6348 151.081 75.1369 148.555 79.6324L148.555 79.5659ZM148.218 58.7486C147.769 58.3272 147.348 57.9059 146.982 57.512C145.944 55.9953 144.793 54.5628 143.445 53.2694C143.586 53.0166 143.671 52.7364 143.698 52.3993C143.698 52.1191 143.725 51.6409 143.755 51.0511C143.896 48.6074 144.007 46.1637 143.923 44.6176C145.271 44.4217 146.365 43.8867 147.096 43.1283C148.723 41.4155 149.062 38.2409 148.106 34.8136C149.51 34.645 150.521 33.9983 151.504 33.1557C152.093 32.6501 152.178 31.78 151.672 31.1882C151.167 30.5983 150.298 30.514 149.706 31.0196C148.416 32.0877 147.235 33.1263 141.004 29.8125C136.09 27.1709 132.665 26.3283 130.532 27.2278C129.579 27.6217 129.073 28.3232 128.905 28.8562C128.68 29.5872 129.046 30.4847 129.804 30.7101C130.534 30.9354 131.292 30.6258 131.488 29.8674C131.488 29.8674 133.061 28.7445 139.686 32.2837C141.904 33.4634 143.643 34.1669 145.077 34.5314C146.228 37.6492 145.976 40.2635 145.077 41.2177C144.768 41.5547 143.955 41.9192 142.437 41.9486C140.555 41.9486 138.675 41.2177 137.692 40.1222C137.16 39.5324 136.288 39.5049 135.699 40.0105C135.137 40.5435 135.082 41.4156 135.587 42.0055C137.046 43.634 139.237 44.3943 141.117 44.6471C141.229 46.107 141.06 49.1974 140.949 50.9395C140.949 51.304 140.921 51.6137 140.892 51.8665C140.33 51.9507 139.349 51.7822 138.871 51.5294C139.208 50.434 139.235 48.7193 139.18 46.5012V46.0798C139.18 45.8545 139.18 45.6311 139.096 45.4057C138.871 44.759 138.17 44.3377 137.524 44.4788C136.317 44.7041 136.345 45.7996 136.372 46.5579C136.4 47.9905 136.372 48.9467 136.372 49.5915C131.711 46.6128 128.147 45.631 124.386 44.6198C121.438 43.8046 118.378 42.9913 114.306 41.1356C102.067 35.5444 80.2512 21.6662 70.4538 14.5314C70.4538 14.504 70.5106 14.4746 70.538 14.4197C71.2684 12.5933 72.1105 11.0197 73.0642 9.75572C83.1985 -3.47587 94.5135 4.44503 106.5 12.7893C110.824 15.8228 114.923 18.6603 118.853 20.3455C125.114 23.0145 129.156 23.7729 139.488 22.6206C144.288 22.0876 155.435 25.4014 158.607 33.4362C158.748 33.8301 162.312 43.0171 158.55 50.5457C156.641 54.3376 153.159 57.091 148.191 58.7214L148.218 58.7486ZM158.045 82.7681C155.995 82.2899 153.721 81.5316 151.222 80.4929C152.906 76.9812 152.765 70.4359 150.353 64.0025C153.441 66.1385 157.146 68.0766 160.824 69.0307C161.386 70.2378 161.47 73.9749 160.262 78.1606C159.504 80.8571 158.605 82.2896 158.043 82.7404L158.045 82.7681ZM189.348 35.7404C188.253 37.847 184.913 38.7191 183.704 38.8582C183.62 38.8582 183.563 38.915 183.508 38.915C183.424 38.915 183.34 38.915 183.283 38.9718L183.226 38.9993C183.142 39.0561 183.085 39.111 183.001 39.1678C182.944 39.2246 182.86 39.2795 182.805 39.3363C182.749 39.3932 182.721 39.4774 182.694 39.5323C182.637 39.6166 182.582 39.7008 182.553 39.7851C182.553 39.8419 182.553 39.9262 182.525 40.0105C182.525 40.1222 182.498 40.2358 182.525 40.3475V40.4044C182.525 40.4886 182.582 40.5729 182.61 40.6572C182.61 40.714 182.61 40.7689 182.666 40.8531C186.26 48.3255 184.266 62.4561 180.279 71.8414C177.837 77.5735 174.776 81.3927 171.886 82.3489C169.107 83.2758 165.71 83.9225 161.19 83.3326C162.004 82.0118 162.621 80.3833 163.015 78.9214C163.661 76.6462 164.39 72.5723 163.914 69.5933C164.391 69.6502 164.867 69.7344 165.318 69.7344C166.356 69.7344 167.368 69.6227 168.294 69.3405C175.65 67.2339 177.869 52.9891 179.496 42.5678C179.833 40.4886 180.113 38.6074 180.422 37.0339V36.8379V36.642C180.311 35.5191 180.422 35.0684 180.422 35.0135C180.618 34.986 181.237 35.182 181.574 35.2663C182.304 35.4916 183.062 35.715 183.793 35.4348C184.41 35.2094 185.14 34.7039 186.011 34.1434C187.134 33.385 188.847 32.3445 189.716 32.2602C189.912 32.2602 190.138 32.317 190.222 32.4561C190.39 32.7658 190.418 33.7769 189.407 35.7151L189.348 35.7404Z" fill="#98A7CC"/>
</svg>
