<svg width="346" height="661" viewBox="0 0 346 661" fill="none" xmlns="http://www.w3.org/2000/svg">
<path d="M32.0821 188.762C28.2018 186.299 23.0457 184.21 20.3581 183.309C19.6133 182.934 17.9674 180.549 16.9987 179.127C14.4623 175.392 10.6498 169.794 5.42581 172.705C2.96221 174.122 1.24355 176.361 0.498745 179.278C-0.772082 183.83 0.42582 189.58 3.6342 195.185C8.56127 203.695 18.8689 205.789 23.3475 206.31C30.8891 218.627 58.3689 233.414 83.0035 242.075C93.0088 245.585 102.941 247.304 112.722 247.304C135.717 247.304 157.597 237.747 175.368 219.304C180.894 213.554 185.373 207.356 188.956 200.788C186.789 221.095 181.263 245.887 171.705 257.758C163.866 263.356 158.491 271.498 156.47 281.351C153.632 295.236 158.111 309.648 167.668 319.878C152.064 437.028 165.949 564.331 172.897 598.304C173.272 609.95 171.033 611.82 166.772 615.331C164.98 616.826 163.861 618.914 163.637 621.305C163.413 623.696 164.158 626.086 165.652 627.878L191.34 658.79C191.861 659.389 192.46 659.837 193.205 659.982C194.028 660.206 194.924 660.357 195.741 660.357C198.054 660.357 200.372 659.535 202.163 657.894C204.627 655.727 205.819 652.441 205.371 649.232C204.7 644.529 204.548 625.56 207.387 610.107C207.387 609.659 209.554 596.446 212.762 575.014V574.941C220.08 525.29 233.069 431.354 239.194 348.101C254.949 350.268 268.762 350.637 276.678 350.564C270.407 361.241 261.522 377.742 254.949 402.46C252.709 410.898 250.766 418.367 249.048 425.231C245.313 440.314 242.777 452.111 241.282 462.715V462.866C240.61 467.496 240.162 471.903 239.938 476.23C237.027 487.506 234.339 488.699 229.261 490.866C227.094 491.762 225.454 493.481 224.558 495.72C223.662 497.96 223.735 500.423 224.631 502.59L240.61 539.475C240.907 540.147 241.433 540.746 242.104 541.194C243.672 542.163 245.391 542.611 247.183 542.611C248.599 542.611 250.021 542.314 251.287 541.715C254.271 540.298 256.292 537.533 256.813 534.246C257.485 529.543 262.636 511.549 269.578 497.585C313.109 442.481 342.526 351.385 344.469 342.798C347.308 330.257 343.87 317.11 335.136 307.705C323.714 295.309 295.786 271.94 261.068 258.574C263.234 249.392 269.13 221.689 269.432 197.944C269.583 185.772 273.536 178.902 277.719 171.736C281.677 164.939 285.708 157.85 285.859 146.871C319.089 137.835 331.479 123.798 338.427 112.522C347.386 98.0382 347.537 79.8195 338.875 61.3768C327.677 37.4808 303.558 17.1742 281.828 12.6222C281.23 9.55963 279.068 5.30443 272.12 2.24189C266.521 -0.221708 260.922 -0.669572 256.814 0.971068C254.126 2.01795 252.183 3.88253 251.137 6.346C248.824 11.7209 254.569 14.7105 258.381 16.7263C259.798 17.4711 262.038 18.6689 262.413 19.0388C262.485 19.4138 262.564 19.8617 262.564 20.3096C262.788 22.6222 263.235 26.4347 266.522 28.8982C268.465 30.3148 270.928 31.0648 274.136 31.0648C275.183 31.0648 276.449 30.9138 277.72 30.6898C284.069 34.5701 299.146 57.6432 302.209 75.2685C303.256 81.1696 302.657 85.4977 300.568 87.5133C289.068 98.5654 271.599 104.388 251.814 104.092C266.522 93.566 266.226 77.884 264.132 68.1026C257.486 36.9666 232.845 27.7853 217.913 29.2013C191.408 31.7377 181.7 29.8003 166.017 22.7794L163.777 21.7325C124.428 4.11255 64.9173 -22.6221 31.84 37.1912C19.0744 60.2645 31.017 76.6912 40.5743 89.8312C47.8921 99.9093 54.2357 108.649 50.6525 118.878C49.2358 122.836 47.4442 126.867 45.5743 131.05C37.4337 149.268 28.5477 169.503 51.8451 189.586C44.2306 188.169 37.3611 187.643 31.7625 188.69L32.0821 188.762ZM197.549 652.296C197.549 652.296 196.95 652.743 196.356 652.816L171.643 623.024C171.643 623.024 171.268 622.28 171.268 621.905C171.268 621.681 171.419 621.306 172.012 620.785C173.955 619.217 175.523 617.722 176.867 615.858C181.497 627.207 189.632 637.06 197.773 642.29C197.773 645.722 197.997 648.56 198.221 650.206C198.372 651.326 197.773 651.998 197.476 652.222L197.549 652.296ZM174.699 556.65C184.257 565.536 196.278 572.03 202.923 575.317C198.819 578.676 190.903 583.379 178.434 585.025C177.241 577.411 175.97 567.774 174.7 556.577L174.699 556.65ZM197.997 633.109C189.632 625.791 180.825 612.426 180.746 598.536L199.563 614.218C198.668 620.567 198.221 627.208 197.997 633.109ZM200.908 605.63L184.184 591.666C193.143 589.802 199.715 586.515 204.267 583.453C202.699 593.979 201.506 601.598 200.835 605.551L200.908 605.63ZM206.507 568.672C198.59 564.791 182.091 555.755 173.428 544.182C168.126 489.376 164.694 405.596 174.699 325.782C174.85 325.933 174.996 326.079 175.22 326.157C192.023 337.579 213.075 343.63 232.189 346.912C226.288 427.256 213.971 517.898 206.501 568.672L206.507 568.672ZM253.695 439.349C259.221 450.625 268.179 460.032 274.674 465.933C268.403 465.636 259.439 464.292 249.434 460.704C250.403 454.579 251.746 447.714 253.689 439.349L253.695 439.349ZM249.737 533.13C249.586 534.25 248.768 534.698 248.466 534.849C248.242 534.922 247.794 535.146 247.195 535.073L231.815 499.532C231.591 499.011 231.742 498.563 231.815 498.339C231.888 498.115 232.112 497.74 232.862 497.443C235.174 496.474 237.117 495.5 238.909 494.084C240.102 506.256 245.18 518.053 251.529 525.37C250.633 528.73 249.961 531.495 249.737 533.063L249.737 533.13ZM254.216 516.552C248.091 507.067 243.388 491.39 247.497 477.874V477.723V477.348C247.497 477.197 247.57 477.124 247.57 477.051V476.827L259.664 501.765C257.575 506.77 255.633 511.843 254.138 516.551L254.216 516.552ZM263.846 493.104L252.497 469.734C263.023 472.797 271.909 473.542 277.809 473.542C273.33 480.411 268.701 486.978 263.846 493.104ZM330.002 312.703C337.023 320.318 339.856 330.922 337.544 341.078C335.903 348.172 315.517 411.786 283.856 464.052C276.835 458.374 260.334 443.297 256.902 426.12C258.543 419.698 260.335 412.532 262.58 404.39C269.824 377.286 279.902 360.484 285.949 350.406L287.069 348.614C287.741 347.422 287.741 345.927 287.069 344.807C286.324 343.614 285.053 342.864 283.636 343.015C282.965 343.015 218.079 346.224 179.475 320.094C167.381 311.953 161.256 296.949 164.095 282.834C166.783 269.693 176.491 260.583 190.824 257.746C213.819 253.194 236.075 257.001 255.783 264.241C255.934 264.241 256.007 264.392 256.158 264.392H256.309C298.872 280.22 329.632 312.252 330.08 312.777L330.002 312.703ZM271.612 167.85C267.283 175.241 262.429 183.605 262.278 197.793C262.054 219.82 256.528 246.252 254.289 255.96C234.054 249.163 211.805 245.881 189.33 250.282C187.538 250.657 185.898 251.105 184.252 251.626C193.434 232.214 197.096 203.168 197.616 185.772C201.798 184.501 205.605 181.365 208.741 176.438C214.34 167.626 217.027 154.788 216.579 142.017C218.595 143.064 220.908 143.96 223.522 144.408C225.314 144.704 227.256 144.855 229.199 144.855C242.715 144.855 260.038 137.689 270.339 124.995C275.12 130.594 277.954 136.719 278.48 141.271C279.896 153.589 276.016 160.162 271.61 167.777L271.612 167.85ZM306.106 92.8088C310.137 88.9286 311.481 82.5796 309.914 73.8448C306.778 56.0008 291.174 28.9702 281.091 23.6675H280.94C280.789 23.5946 280.565 23.4435 280.419 23.3706H280.122C279.825 23.2977 279.601 23.2196 279.299 23.2196H278.627H278.252C273.471 24.0425 271.83 23.2925 271.383 22.9227C270.711 22.4019 270.487 21.2039 270.336 19.4904C270.185 18.2977 270.112 17.0998 269.591 15.98C268.32 13.2926 265.185 11.6519 262.2 10.006C261.304 9.55812 259.961 8.81333 259.065 8.2143C259.289 8.06326 259.586 7.91742 259.888 7.76638C261.607 7.0945 265.039 7.0216 269.445 8.95909C275.195 11.4955 274.971 14.558 274.971 14.782V14.8549V14.9279V15.5268V16.2716C274.971 16.4956 275.122 16.6466 275.195 16.8706C275.268 17.0945 275.346 17.3185 275.492 17.5424L275.94 17.9904C276.091 18.1414 276.315 18.3654 276.461 18.5112C276.685 18.6622 276.909 18.7351 277.133 18.8081C277.356 18.881 277.508 19.032 277.653 19.032H277.804H277.955C297.893 21.8706 321.783 41.7294 332.315 64.204C337.69 75.6259 342.024 92.5014 332.315 108.256C326.118 118.261 315.217 130.579 285.498 138.944C284.003 130.21 276.764 118.261 265.191 110.569C281.467 108.554 295.727 102.429 305.957 92.648L306.106 92.8088ZM260.112 116.178C261.83 117.225 263.398 118.491 264.966 119.761C255.033 132.454 236.518 139.1 224.794 137.084C219.268 136.115 215.981 133.574 215.085 129.391C214.934 128.72 214.789 128.121 214.565 127.449C214.492 127.074 214.414 126.704 214.341 126.402C214.341 126.329 214.268 126.251 214.268 126.178C212.7 120.355 210.611 115.501 208.143 111.839C210.83 112.438 213.596 113.183 216.653 114.303C217.101 114.454 217.622 114.527 218.07 114.527C220.158 115.647 222.773 116.168 225.314 116.168C227.627 116.168 229.867 115.72 231.512 114.897C232.705 114.298 233.679 113.402 234.273 112.433C245.174 109.147 254.283 112.584 260.185 116.168L260.112 116.178ZM52.8315 134.1C54.6961 129.917 56.6389 125.589 58.1337 121.334C63.0607 107.37 54.9254 96.2459 47.0086 85.4166C37.3783 72.203 28.2686 59.7286 38.7222 40.7659C68.5142 -13.0674 122.05 10.9739 161.102 28.4482L163.342 29.4951C180.144 36.9639 191.044 39.2033 218.967 36.5159C231.212 35.3231 251.519 43.1617 257.123 69.5212C260.858 86.9172 253.243 98.4172 234.65 103.871C234.426 100.287 234.129 96.1778 233.306 92.8965C233.306 92.7455 233.155 92.5996 233.082 92.4486C235.249 91.7038 237.337 90.7298 239.28 89.4642C243.608 86.6257 246.223 83.0423 246.671 79.3861C247.191 74.9798 243.832 66.0221 237.04 59.3034C240.103 56.8398 241.447 53.8503 242.566 50.569C243.238 48.6263 242.118 46.5378 240.176 45.8659C238.233 45.1941 236.145 46.3139 235.473 48.2566C234.056 52.5847 232.712 56.6211 213.67 57.8139C198.659 58.7098 189.55 61.6213 185.967 66.6994C184.327 68.939 184.176 71.3297 184.551 72.7463C184.999 74.4651 186.639 75.8089 188.358 75.8089C188.655 75.8089 188.879 75.8089 189.181 75.7359C191.197 75.2151 192.389 73.4964 191.868 71.4808C191.868 71.4808 193.884 66.6266 214.191 65.3557C220.988 64.9078 225.988 64.0849 229.874 62.965C236.671 68.491 239.582 76.6264 239.358 78.6477C239.207 79.7675 238.087 81.5591 235.254 83.3507C230.775 86.2622 224.801 87.533 220.691 86.3351C218.676 85.7362 216.66 86.9341 216.061 88.8715C215.462 90.8871 216.66 92.9027 218.597 93.5018C220.316 94.0226 222.254 94.2466 224.196 94.2466C224.795 94.2466 225.467 94.1737 226.061 94.0956V94.8403C226.884 98.1997 227.181 103.278 227.332 106.934V108.653C225.988 109.028 223.149 108.877 221.806 108.278C222.405 105.293 222.03 101.705 221.431 98.0487C221.431 97.5279 221.28 97.0018 221.056 96.4809C220.233 94.8403 218.295 93.9445 216.504 94.4653C215.087 94.9133 213.519 96.1841 214.04 99.4705C214.561 102.455 214.712 104.622 214.561 106.043C206.795 103.731 200.077 102.981 194.254 103.653C193.134 103.653 192.015 103.877 190.895 104.252C172.973 108.132 164.088 125.382 155.504 142.257C153.265 146.663 150.723 152.559 148.113 158.757C141.244 174.96 131.837 197.21 122.504 201.096C113.02 205.127 94.1295 200.127 75.9108 195.346C74.64 195.049 73.4472 194.674 72.1764 194.377C34.9164 173.992 43.1298 155.549 52.6138 134.194L52.8315 134.1ZM74.2582 202.496C88.7422 206.303 102.633 209.964 113.68 209.964C118.159 209.964 122.19 209.365 125.627 207.949C137.721 202.871 146.982 180.918 155.195 161.579C157.732 155.532 160.201 149.782 162.362 145.527C171.398 127.757 179.086 112.825 195.513 110.954C196.185 111.027 196.856 111.178 197.528 111.553C199.393 112.6 204.023 116.407 207.31 129.397C211.414 145.976 208.054 163.444 202.382 172.408C200.888 174.798 199.247 176.512 197.528 177.637V176.892C198.497 171.741 199.023 166.366 199.023 160.84C199.023 158.752 197.382 157.106 195.289 157.106C193.273 157.106 191.554 158.746 191.554 160.84C191.403 181.819 184.388 199.22 170.128 214.001C146.982 238.043 116.216 245.657 85.6063 234.835C58.429 225.277 33.117 210.121 29.2317 201.085C29.2317 200.934 29.0077 200.789 28.9348 200.637C28.7837 200.414 28.6379 200.117 28.414 199.893C28.19 199.669 27.9661 199.596 27.7421 199.445C27.5911 199.294 27.4452 199.221 27.2213 199.07C26.9244 198.919 26.6223 198.919 26.2525 198.846C26.1015 198.846 25.9556 198.773 25.8046 198.773C25.6536 198.773 14.3046 198.325 10.1219 191.231C7.95525 187.497 6.98645 183.539 7.73125 181.002C7.88229 180.481 8.10627 180.033 8.33023 179.731C9.07501 180.627 10.1219 182.122 10.7938 183.164C12.8823 186.299 14.898 189.21 17.8876 190.257C20.799 191.226 26.1012 193.466 29.0126 195.559H29.1637C29.3876 195.71 29.6845 195.783 29.9085 195.934C30.1324 195.934 30.2835 196.085 30.5074 196.158H31.1793H31.9241H32.0751C41.2574 193.846 57.9084 198.247 74.0391 202.429L74.2582 202.496Z" fill="#98A7CC"/>
</svg>
