<svg width="288" height="652" viewBox="0 0 288 652" fill="none" xmlns="http://www.w3.org/2000/svg">
<path d="M282.989 611.292C281.718 610.469 280.151 609.651 278.51 608.756C274.927 606.74 269.921 603.974 268.656 602.183L267.76 600.99C266.192 598.823 265.447 597.782 265.671 591.881C265.671 591.584 265.52 591.282 265.447 590.985C300.469 392.825 265.895 363.558 195.035 316.731C196.306 316.58 197.572 316.435 198.619 316.435C200.561 316.435 202.202 314.94 202.353 313.002C202.577 310.466 206.983 251.325 203.77 222.956C203.546 220.867 203.025 217.133 202.202 212.653C211.832 204.44 222.062 187.117 230.129 165.836C230.202 165.612 230.28 165.461 230.353 165.237C245.509 125.065 252.899 71.6065 234.384 40.9198C236.176 34.0501 235.129 25.9878 233.936 19.8625C233.936 18.9667 235.207 16.3521 236.025 14.7844C238.04 10.7532 241.103 4.55518 236.025 1.49265C233.561 -0.00215181 230.795 -0.371885 227.811 0.372861C223.181 1.56557 218.702 5.45099 215.342 11.0499C209.816 20.5343 214.373 31.8046 215.863 35.0913C215.712 58.6126 197.942 106.919 176.89 132.977C176.369 133.352 175.921 133.872 175.619 134.471C168.452 142.982 160.983 148.883 153.744 150.226C153.744 146.643 153.52 142.757 153.145 139.398C156.729 138.799 160.536 137.903 162.327 136.559C167.557 132.601 167.853 121.179 163.447 109.83C174.572 111.174 178.827 110.502 180.395 106.992C182.187 102.96 178.453 99.7467 173.676 95.6426C171.364 93.627 168.15 90.9395 167.406 89.3718C163.895 82.127 159.489 78.0229 154.265 77.1999C149.937 76.528 146.051 78.3926 143.812 80.0385C140.525 78.2467 135.895 76.0073 131.494 77.5021C125.369 79.5177 121.489 83.1791 120.593 88.0281C118.057 88.9239 115.442 90.6426 114.02 92.6583C111.854 95.8666 111.109 99.5281 111.708 104.679C111.859 105.799 111.708 107.294 111.708 108.934C111.411 114.46 111.036 122.002 116.036 126.705C117.083 127.674 121.786 130.585 126.041 131.111C126.416 132.83 126.864 134.768 127.312 136.861C128.281 141.116 130.15 148.955 129.478 150.825C129.327 151.122 129.255 151.497 129.103 151.794C105.885 151.195 85.6448 155.674 68.1768 165.382C67.432 165.533 66.8331 165.903 66.3123 166.502C39.2816 182.256 19.1976 210.778 5.53093 252.518C-2.68267 277.606 -1.48986 319.491 7.39547 333.455C5.82774 337.783 3.06733 348.387 8.89026 356.903C12.6247 362.429 17.5517 366.085 22.2543 366.908C22.9991 367.059 23.7491 367.132 24.4209 367.132C26.5876 367.132 28.6761 366.533 30.4679 365.268C35.4731 361.757 31.9627 355.783 29.572 351.752C28.6762 350.184 27.1084 347.569 27.1084 346.747C27.4834 343.762 27.8532 337.861 27.2595 333.159C33.6814 324.57 36.6657 312.7 39.6553 300.08C43.3116 284.621 47.1241 268.648 57.7233 256.476C62.0515 251.471 67.0567 246.247 72.3593 241.768C71.9843 245.054 71.6145 248.565 71.1666 252.445C69.0781 272.158 66.1614 299.185 57.8749 317.404C57.052 319.268 57.8749 321.435 59.7394 322.331C61.9061 323.378 64.1457 324.273 66.3853 325.091C23.4533 374.966 25.9893 534.904 34.6506 624.211C33.9788 626.003 33.6038 627.867 33.8277 629.737C34.0517 631.68 33.6767 632.873 33.0048 634.742C32.3329 636.685 31.51 639.07 31.51 642.508C31.51 644.82 32.4058 647.06 34.0464 648.706C35.6871 650.425 38.0776 651.393 40.4683 651.393H80.6403C81.385 651.393 82.1351 651.169 82.8069 650.721C85.4944 648.857 87.0621 645.716 86.9111 642.435C86.8381 639.149 85.0465 636.164 82.2808 634.445C81.0099 633.701 79.4422 632.805 77.8745 631.909C74.2182 629.893 69.286 627.128 68.0204 625.336L67.1246 624.143C65.6298 622.128 64.9579 621.008 65.036 616.154C96.0987 574.414 151.724 498.476 144.109 401.034C158.593 412.232 185.473 436.351 194.136 466.367C211.235 525.351 234.308 601.434 234.605 602.18C234.605 602.404 234.829 602.477 234.98 602.701C234.683 603.972 234.605 605.316 234.756 606.66C234.98 608.602 234.605 609.795 233.933 611.665C233.262 613.607 232.439 615.993 232.439 619.43C232.439 621.743 233.335 623.983 234.975 625.628C236.616 627.347 239.006 628.316 241.397 628.316H281.569C282.314 628.316 283.064 628.092 283.736 627.644C286.423 625.779 287.991 622.639 287.84 619.357C287.767 616.071 285.975 613.087 283.209 611.368L282.989 611.292ZM223.333 34.1986V34.0476C223.333 33.8236 223.26 33.5997 223.182 33.3757C223.182 33.1518 223.109 32.8549 222.958 32.6309V32.4799C222.958 32.407 217.505 22.0996 221.838 14.7826C224.078 10.9752 227.068 8.20962 229.677 7.53775C230.276 7.38671 230.724 7.38671 231.245 7.46484C230.87 8.58462 230.052 10.3034 229.453 11.4232C227.734 14.8555 226.166 18.0691 226.838 21.5795C227.51 24.8659 229.453 34.8712 226.838 40.9182C226.015 42.7827 226.838 44.8766 228.703 45.6994C243.786 71.9807 238.859 116.855 226.911 153.293C224.823 150.454 221.984 147.616 218.401 144.782C209.666 138.064 197.422 132.241 187.338 131.345C208.317 101.777 223.625 55.4076 223.478 34.1316L223.333 34.1986ZM181.218 139.256C188.239 137.24 202.797 142.319 213.697 150.756C219.822 155.459 223.478 160.464 223.181 163.522C216.463 181.219 208.249 195.928 200.332 204.142C195.853 185.923 186.144 161.282 165.613 153.22C170.988 149.934 176.14 145.158 181.144 139.256L181.218 139.256ZM157.921 130.594C156.728 131.339 150.603 132.537 144.484 132.985C142.395 133.136 140.9 134.928 141.051 136.944C141.203 138.886 142.843 140.376 144.786 140.376H145.083H145.906C146.505 146.199 146.578 153.517 146.354 157.996C145.161 157.996 142.921 157.772 140.307 156.652C137.619 155.532 136.348 154.189 136.124 154.413C138.14 150.756 136.947 144.704 134.63 135.147C133.807 131.861 133.062 128.428 132.911 126.637C132.911 125.965 132.614 125.444 132.312 124.918C132.312 124.694 132.312 124.47 132.161 124.173C130.442 119.022 131.937 116.335 132.01 116.111C135.968 114.543 137.911 110.512 137.015 105.809C138.286 105.434 139.999 104.762 141.942 103.418C144.255 104.986 148.213 106.928 154.708 108.423C160.682 120.069 159.411 129.48 157.916 130.6L157.921 130.594ZM129.176 109.168C126.113 110.361 122.905 115.439 124.098 122.908C122.827 122.387 121.634 121.637 121.113 121.189C118.577 118.876 118.874 113.574 119.098 109.241C119.249 107.074 119.322 105.137 119.098 103.715C118.65 99.684 119.322 98.0381 120.144 96.8454C120.816 95.8767 123.353 94.8298 124.176 94.6788C124.999 94.6058 125.743 94.2308 126.342 93.7829C127.311 93.0381 127.837 91.6944 127.759 90.4965C127.535 87.1372 131.415 85.4184 133.733 84.6736C135.525 84.0746 139.035 86.0173 141.124 87.21L142.467 87.9548C143.962 88.6996 145.754 88.4027 146.947 87.21C146.947 87.21 149.931 84.0745 153.144 84.6736C155.759 85.1215 158.374 87.8819 160.686 92.6632C162.181 95.6476 165.54 98.5643 168.827 101.398C169.426 101.918 170.098 102.444 170.691 103.038C168.9 102.965 166.363 102.741 162.702 102.293C148.666 100.429 145.004 96.3924 145.004 96.3924C144.405 95.4966 143.364 94.8976 142.317 94.7517C141.197 94.6788 140.15 95.0486 139.333 95.7986C137.244 97.8872 135.598 98.335 134.254 98.783C131.343 99.6789 128.504 101.398 129.624 107.069C129.624 107.069 129.921 108.788 129.176 109.158L129.176 109.168ZM51.9731 251.555C40.1762 265.143 35.9944 282.763 32.3371 298.372C29.4256 310.841 26.5871 322.565 20.5402 329.883C20.5402 329.883 20.5402 329.955 20.4672 330.034C20.3162 330.258 20.1704 330.481 20.0922 330.778C20.0193 331.002 19.8683 331.153 19.8683 331.377V332.049V332.794V332.945C20.5402 336.679 20.2433 342.653 19.8683 345.789C19.4933 348.924 21.3631 352.138 23.3005 355.497C23.9724 356.617 25.0193 358.408 25.4672 359.528C24.9464 359.679 24.4203 359.679 23.7484 359.528C20.988 359.007 17.7015 356.393 15.1599 352.658C10.2328 345.492 15.087 334.59 15.1599 334.44C15.2328 334.289 15.1599 334.065 15.3109 333.919C15.3838 333.622 15.462 333.398 15.5349 333.096C15.5349 332.872 15.5349 332.721 15.462 332.497C15.462 332.2 15.462 331.976 15.3109 331.674C15.238 331.45 15.087 331.226 14.9359 331.075C14.7849 330.851 14.7849 330.7 14.639 330.476C7.76931 322.56 4.25878 281.419 12.9203 254.84C24.8681 218.106 41.4416 192.491 63.5456 177.038C62.1289 188.235 62.8737 205.038 68.6237 217.21C71.0144 222.361 74.2226 226.095 77.957 228.71C69.9674 233.564 61.457 241.105 52.3477 251.559L51.9731 251.555ZM66.0091 317.039C73.6236 297.997 76.3894 272.315 78.4779 253.273C79.2227 246.554 79.8216 240.581 80.5664 235.951V235.576C82.7331 234.232 84.8946 233.039 87.0612 232.065H87.2123C92.0664 230.05 96.8425 229.305 101.176 230.648C103.119 231.247 105.207 230.128 105.807 228.185C106.405 226.242 105.286 224.154 103.343 223.555C97.968 221.914 92.0669 222.362 85.7963 224.674C81.39 223.404 77.7337 219.893 75.0463 214.148C68.4004 200.034 69.5203 178.086 72.0619 171.586C88.5619 162.549 107.901 158.518 130.374 159.341H130.895C134.103 162.924 140.749 165.539 145.905 165.539C147.098 165.539 148.296 165.388 149.265 165.091C151.879 164.268 153.52 162.252 153.744 159.638V158.367C187.493 160.903 195.26 213.096 196.452 223.851C199.139 247.82 196.155 296.278 195.259 309.267C189.134 309.866 181.145 311.954 171.514 314.496C144.035 321.741 102.894 332.491 66.0872 317.184L66.0091 317.039ZM74.0716 638.479C75.5664 639.301 77.056 640.119 78.2539 640.869C79.2227 641.468 79.3008 642.364 79.3737 642.734C79.3737 642.958 79.3737 643.478 79.0768 644.004H40.3995C40.0245 644.004 39.5765 643.853 39.2797 643.557C39.1286 643.406 38.9047 643.036 38.9047 642.661C38.9047 640.421 39.4255 638.926 40.0245 637.286C40.7692 635.119 41.5922 632.656 41.1443 628.999C40.8474 626.687 42.7849 624.447 44.5036 622.952C48.6077 619.369 54.5817 617.354 57.4932 617.051C57.4932 623.4 58.9098 625.64 61.0765 628.624L61.8213 629.744C64.1338 633.031 69.2901 635.869 74.2172 638.63L74.0716 638.479ZM201.082 464.358C190.181 426.577 152.848 397.978 141.722 390.14C141.571 390.067 141.425 389.989 141.274 389.916C140.977 389.765 140.754 389.619 140.451 389.541H139.78H139.181H139.108C138.811 389.541 138.509 389.692 138.285 389.838C138.134 389.838 137.91 389.911 137.764 390.062C137.54 390.213 137.389 390.359 137.243 390.51C137.019 390.661 136.795 390.807 136.644 391.03L136.571 391.103C136.498 391.254 136.42 391.4 136.347 391.624C136.196 391.848 136.123 392.072 136.05 392.369V393.114V393.713C147.175 490.702 92.1437 567.233 60.5611 609.793C55.41 608.673 47.0451 612.105 42.4157 615.246C42.0407 615.47 41.7439 615.767 41.447 616.069C33.9054 530.205 31.8896 371.095 74.2283 327.855C85.5772 331.142 96.999 332.486 108.275 332.486C132.691 332.486 155.911 326.439 173.608 321.736C177.64 320.689 181.374 319.72 184.806 318.897C256.785 366.236 293.072 390.428 258.952 586.43C253.873 586.503 247.228 589.415 243.269 592.108C242.076 592.93 241.029 593.826 240.061 594.722C234.462 576.279 215.717 514.233 201.311 464.43L201.082 464.358ZM279.853 620.865H241.176C240.801 620.865 240.353 620.714 240.056 620.417C239.905 620.266 239.681 619.896 239.681 619.521C239.681 617.282 240.202 615.787 240.801 614.146C241.545 611.98 242.368 609.516 241.92 605.86C241.624 603.548 243.561 601.308 245.28 599.813C249.384 596.23 255.358 594.214 258.269 593.912C258.269 600.261 259.686 602.501 261.853 605.485L262.597 606.605C264.91 609.891 269.988 612.73 274.993 615.49C276.488 616.313 277.978 617.131 279.176 617.881C280.144 618.48 280.222 619.376 280.295 619.745C280.295 619.969 280.295 620.49 279.999 621.016L279.853 620.865Z" fill="#98A7CC"/>
</svg>
