<svg width="48" height="48" viewBox="0 0 48 48" fill="none" xmlns="http://www.w3.org/2000/svg">
<g clip-path="url(#clip0_33_86)">
<g filter="url(#filter0_f_33_86)">
<ellipse cx="23.5" cy="22.5" rx="10.5" ry="6.5" fill="black" fill-opacity="0.36"/>
</g>
<path d="M24.0605 1.00018H22.9251C18.0333 1.25135 13.815 6.49873 15.3034 11.3862C16.1097 13.7147 17.322 15.8166 18.6994 17.8125C19.1842 18.5163 19.6903 19.2064 20.2063 19.8889C20.6605 20.4913 21.123 21.0876 21.5878 21.6807C22.1901 22.4552 22.797 23.2253 23.3872 24H23.6343C24.2157 23.2156 24.8188 22.4386 25.4211 21.6591C25.8828 21.0624 26.3458 20.4651 26.8014 19.862C27.3132 19.1846 27.8173 18.5012 28.3008 17.8051C29.7381 15.7305 31.0014 13.546 31.7892 11.0981C32.9942 6.24665 28.8473 1.25145 24.0603 1L24.0605 1.00018ZM23.277 13.0181C21.3177 13.0181 19.7293 11.4072 19.7293 9.42101C19.7293 7.4343 21.3176 5.82443 23.277 5.82443C25.2364 5.82443 26.825 7.43466 26.825 9.42101C26.8251 11.407 25.2365 13.0181 23.277 13.0181Z" fill="#1E40AF"/>
<path d="M23.1237 0.500183L23.0889 0.448284L24.0866 0.500688C26.6443 0.635042 29.0046 2.032 30.5647 4.01487C32.1266 5.99991 32.9207 8.61689 32.2745 11.2186L32.2704 11.2351L32.2652 11.2513C31.4564 13.7644 30.1634 15.9945 28.7118 18.0898L28.7115 18.0903C28.2227 18.794 27.7142 19.4832 27.2004 20.1634L27.2004 20.1634C26.7729 20.7292 26.3391 21.2898 25.9081 21.8468L25.8168 21.9648L23.1237 0.500183ZM23.1237 0.500183H22.9251H22.9123L22.8995 0.50084C20.2845 0.63511 17.8782 2.09947 16.3231 4.15271C14.7662 6.20851 14.0254 8.90591 14.8251 11.5319L14.8278 11.5409L14.8309 11.5498C15.6572 13.9362 16.8959 16.0794 18.2876 18.0962C18.7779 18.8078 19.2885 19.504 19.8072 20.1902M23.1237 0.500183L25.8166 21.965C25.761 22.0369 25.7055 22.1087 25.6501 22.1805C25.1029 22.8883 24.5604 23.5901 24.036 24.2977L23.8861 24.5H23.6343H23.3872H23.1396L22.9895 24.303C22.5689 23.7509 22.1406 23.2023 21.7095 22.65C21.5379 22.4302 21.3659 22.2097 21.1937 21.9883C20.7282 21.3943 20.2638 20.7956 19.8072 20.1902M19.8072 20.1902C19.8072 20.1901 19.8071 20.19 19.8071 20.19L20.2063 19.8889L19.8074 20.1904C19.8074 20.1903 19.8073 20.1903 19.8072 20.1902ZM26.325 9.42101V9.42106C26.3251 11.1374 24.9538 12.5181 23.277 12.5181C21.6004 12.5181 20.2293 11.1376 20.2293 9.42101C20.2293 7.704 21.6002 6.32443 23.277 6.32443C24.9539 6.32443 26.325 7.70437 26.325 9.42101Z" stroke="#1E40AF" stroke-opacity="0.3"/>
</g>
<defs>
<filter id="filter0_f_33_86" x="9" y="12" width="29" height="21" filterUnits="userSpaceOnUse" color-interpolation-filters="sRGB">
<feFlood flood-opacity="0" result="BackgroundImageFix"/>
<feBlend mode="normal" in="SourceGraphic" in2="BackgroundImageFix" result="shape"/>
<feGaussianBlur stdDeviation="2" result="effect1_foregroundBlur_33_86"/>
</filter>
<clipPath id="clip0_33_86">
<rect width="48" height="48" fill="white"/>
</clipPath>
</defs>
</svg>
