<svg width="17" height="23" viewBox="0 0 17 23" fill="none" xmlns="http://www.w3.org/2000/svg">
<path d="M9.06047 0.000182526H7.92513C3.03334 0.251353 -1.18496 5.49873 0.303379 10.3862C1.10967 12.7147 2.32204 14.8166 3.69936 16.8125C4.18421 17.5163 4.69032 18.2064 5.20629 18.8889C5.66053 19.4913 6.12301 20.0876 6.58783 20.6807C7.19015 21.4552 7.797 22.2253 8.38721 23H8.63429C9.21566 22.2156 9.81883 21.4386 10.4211 20.6591C10.8828 20.0624 11.3458 19.4651 11.8014 18.862C12.3132 18.1846 12.8173 17.5012 13.3008 16.8051C14.7381 14.7305 16.0014 12.546 16.7892 10.0981C17.9942 5.24665 13.8473 0.251448 9.06035 0L9.06047 0.000182526ZM8.27705 12.0181C6.31767 12.0181 4.72931 10.4072 4.72931 8.42101C4.72931 6.4343 6.31763 4.82443 8.27705 4.82443C10.2364 4.82443 11.825 6.43466 11.825 8.42101C11.8251 10.407 10.2365 12.0181 8.27705 12.0181Z" fill="#98A7CC"/>
</svg>
